<?xml version="1.0" encoding="iso-8859-1"?>
<!-- Uploaded to: SVG Repo, www.svgrepo.com, Generator: SVG Repo Mixer Tools -->
<svg height="800px" width="800px" version="1.1" id="Layer_1" xmlns="http://www.w3.org/2000/svg" xmlns:xlink="http://www.w3.org/1999/xlink" 
	 viewBox="0 0 512.001 512.001" xml:space="preserve">
<g>
	<path style="fill:#C2AF9D;" d="M389.704,281.265l2.855-1.607c1.168-0.657,2.443-1.415,3.9-2.319l2.209-1.37l4.459,10.728
		l-3.425,2.576L389.704,281.265z"/>
	<path style="fill:#C2AF9D;" d="M397.627,279.22l3.461,8.327l-7.442-5.96C394.961,280.846,396.289,280.049,397.627,279.22z"/>
</g>
<path style="fill:#3D484A;" d="M511.902,197.355c0.265,1.692-0.011,3.428-0.774,4.965l-8.261,16.51
	c-1.405,2.82-4.28,4.589-7.42,4.589h-16.511c-9.278,0-29.845,16.499-46.368,29.769c-7.155,5.728-14.177,11.357-20.978,16.422
	l15.084,36.305h19.232c4.588,0,8.294,3.716,8.294,8.294c0,4.578-3.706,8.294-8.294,8.294h-24.771c-1.88,0-3.705-0.641-5.175-1.814
	l-39.866-31.892c-1.514,0.31-3.008,0.531-4.455,0.619v16.499h8.216c4.578,0,8.294,3.716,8.294,8.294
	c0,4.578-3.716,8.294-8.294,8.294h-33.031c-2.908,0-5.607-1.526-7.111-4.025l-18.679-31.129c-1.294-2.156-2.256-4.468-2.885-6.834
	c-15.67,3.727-34.713,4.191-43.051,4.191c-1.702,0-2.94-0.022-3.626-0.033c-7.862,9.897-20.049,17.196-34.669,20.403
	c-0.133,0.265-0.276,0.553-0.42,0.84H256c4.578,0,8.294,3.716,8.294,8.294c0,4.578-3.716,8.294-8.294,8.294h-33.031
	c-1.283,0-2.554-0.299-3.705-0.874l-33.031-16.51c-2.245-1.128-3.859-3.207-4.39-5.662c-0.101-0.453-0.388-1.913-0.453-4.125
	c-72.62,46.124-168.208,51.698-172.666,51.93c-0.144,0.011-0.288,0.011-0.431,0.011c-4.158,0-7.708-3.096-8.227-7.265
	c-0.541-4.313,2.344-8.316,6.613-9.167c37.178-7.376,72.067-40.982,109.013-76.579c45.284-43.614,92.105-88.71,148.569-88.71
	c34.778,0,70.851,11.788,82.076,15.791c17.339-7.774,34.524-2.842,41.889,0.022c9.51-3.804,35.486-13.878,48.236-15.725
	c18.787-2.742,31.251,0.641,40.418,10.948c2.267,2.554,8.769,4.246,14,5.618C499.561,184.471,510.354,187.28,511.902,197.355z
	 M490.329,206.832l3.294-6.591c-2.068-0.719-4.832-1.438-6.923-1.991c-7.785-2.035-16.611-4.335-22.216-10.638
	c-3.539-3.981-8.726-8.017-25.634-5.562c-10.902,1.581-38.051,12.076-47.595,15.979c-2.244,0.918-4.787,0.807-6.944-0.299
	c-0.144-0.077-17.782-8.769-33.475-0.111c-2.156,1.183-4.722,1.36-7,0.464c-0.409-0.155-41.756-15.946-79.576-15.946
	c-49.774,0-94.151,42.74-137.056,84.077c-21.818,21.011-42.951,41.369-64.747,56.641c39.279-8.139,91.905-24.384,130.455-56.32
	c3.306-2.742,8.15-2.499,11.169,0.542c3.03,3.041,3.229,7.896,0.477,11.18c-4.777,5.684-6.16,10.915-6.503,14.221l21.221,10.605
	c0.276-0.564,2.676-5.408,3.362-6.79c1.703-3.406,3.052-6.104,7.276-6.79c20.215-3.251,30.521-14.685,33.44-24.317
	c2.223-7.354,0.497-14.354-4.733-19.208c-3.362-3.107-3.561-8.36-0.453-11.722c3.118-3.351,8.359-3.561,11.722-0.442
	c9.444,8.747,13.05,21.42,9.853,34.248c10.252-0.21,27.69-1.161,39.578-5.076c0.652-1.559,1.449-3.074,2.4-4.512l9.953-14.918
	c2.532-3.815,7.686-4.844,11.501-2.3c3.803,2.532,4.844,7.686,2.3,11.501l-9.953,14.918c-2.223,3.329-2.323,7.697-0.265,11.136
	l16.267,27.104h3.528v-32.987c0-3.483,2.167-6.591,5.43-7.785c1.37-0.52,34.104-13.27,27.722-48.546
	c-0.807-4.501,2.178-8.814,6.69-9.632c4.512-0.818,8.825,2.178,9.632,6.69c4.368,24.129-4.865,40.551-14.155,50.492
	c10.207-6.569,21.696-15.791,31.816-23.897c22.349-17.937,41.646-33.418,56.75-33.418L490.329,206.832L490.329,206.832z
	 M401.087,287.546l-3.461-8.327c-1.338,0.829-2.665,1.626-3.982,2.366L401.087,287.546z"/>
<g>
	<path style="fill:#C2AF9D;" d="M61.19,321.044c21.622-15.15,42.392-35.151,64.383-56.327l0.098-0.094
		c43.22-41.639,87.912-84.696,138.591-84.696c37.505,0,78.613,15.426,80.343,16.083c0.738,0.29,1.473,0.428,2.226,0.428
		c1.022,0,2.039-0.262,2.943-0.757c4.941-2.726,10.535-4.109,16.624-4.109c10.47,0,18.882,4.169,18.961,4.211
		c0.821,0.42,1.785,0.652,2.752,0.652c0.797,0,1.574-0.153,2.308-0.452c0.346-0.142,34.786-14.188,48.115-16.122
		c3.525-0.511,6.747-0.771,9.574-0.771c10.336,0,14.773,3.39,18.031,7.053c5.152,5.793,13.621,8.007,21.093,9.959l0.43,0.113
		c2.08,0.55,4.669,1.234,6.688,1.936l2.378,0.826l-5.032,10.065h-12.758c-14.334,0-33.349,15.26-55.366,32.931l-0.357,0.286
		c-10.06,8.058-21.461,17.192-31.646,23.746l-2.812-3.369c8.556-9.157,17.86-25.021,13.594-48.588
		c-0.52-2.904-3.028-5.007-5.966-5.007c-0.364,0-0.733,0.033-1.095,0.098c-3.298,0.598-5.499,3.768-4.908,7.065
		c6.687,36.966-27.65,50.448-29.114,51.004c-2.404,0.88-4.003,3.174-4.003,5.717v35.199h-6.991l-16.911-28.178
		c-2.496-4.172-2.369-9.471,0.323-13.502l9.951-14.917c0.901-1.351,1.221-2.975,0.901-4.569c-0.32-1.592-1.239-2.965-2.588-3.864
		c-1.006-0.671-2.173-1.025-3.374-1.025c-2.042,0-3.935,1.012-5.059,2.707l-9.955,14.922c-0.845,1.277-1.587,2.671-2.199,4.138
		l-0.39,0.931l-0.958,0.315c-11.676,3.845-28.318,4.943-40.225,5.187l-2.89,0.06l0.699-2.806c3.031-12.165-0.326-23.862-9.21-32.091
		c-1.128-1.046-2.593-1.621-4.127-1.621c-1.715,0-3.302,0.692-4.472,1.948c-2.274,2.459-2.125,6.315,0.336,8.591
		c5.876,5.455,7.825,13.28,5.349,21.472c-3.113,10.267-13.994,22.45-35.206,25.861c-2.977,0.483-3.884,2.065-5.649,5.594
		c-0.682,1.376-3.078,6.211-3.354,6.774l-0.981,2.002l-24.584-12.285l0.158-1.523c0.383-3.684,1.91-9.348,7.01-15.416
		c2.036-2.427,1.885-5.952-0.349-8.195c-1.152-1.161-2.685-1.799-4.316-1.799c-1.41,0-2.787,0.497-3.874,1.399
		c-39.317,32.572-93.167,48.858-131.417,56.783L61.19,321.044z"/>
	<path style="fill:#C2AF9D;" d="M493.623,200.241l-3.294,6.591h-11.391c-15.105,0-34.401,15.482-56.75,33.418
		c-10.118,8.106-21.608,17.328-31.816,23.897c9.289-9.941,18.523-26.363,14.155-50.492c-0.807-4.512-5.12-7.509-9.632-6.69
		c-4.512,0.818-7.496,5.131-6.69,9.632c6.381,35.276-26.352,48.026-27.722,48.546c-3.262,1.194-5.43,4.302-5.43,7.785v32.987h-3.528
		l-16.267-27.104c-2.057-3.439-1.957-7.807,0.265-11.136l9.952-14.918c2.543-3.815,1.503-8.968-2.3-11.501
		c-3.815-2.543-8.968-1.515-11.501,2.3l-9.952,14.918c-0.95,1.438-1.747,2.953-2.4,4.512c-11.888,3.915-29.327,4.866-39.578,5.076
		c3.197-12.828-0.409-25.501-9.853-34.248c-3.362-3.118-8.602-2.908-11.722,0.442c-3.107,3.362-2.908,8.614,0.453,11.722
		c5.231,4.855,6.956,11.855,4.733,19.208c-2.921,9.632-13.226,21.066-33.44,24.317c-4.224,0.686-5.573,3.384-7.276,6.79
		c-0.686,1.382-3.085,6.226-3.362,6.79l-21.221-10.605c0.344-3.306,1.726-8.537,6.503-14.221c2.752-3.284,2.553-8.139-0.477-11.18
		c-3.018-3.041-7.861-3.284-11.169-0.542c-38.549,31.936-91.176,48.181-130.455,56.32c21.796-15.272,42.927-35.63,64.747-56.641
		c42.906-41.336,87.283-84.077,137.056-84.077c37.82,0,79.167,15.791,79.576,15.946c2.279,0.896,4.844,0.719,7-0.464
		c15.692-8.659,33.331,0.033,33.475,0.111c2.156,1.106,4.7,1.216,6.944,0.299c9.544-3.904,36.693-14.398,47.595-15.979
		c16.908-2.455,22.095,1.581,25.634,5.562c5.605,6.303,14.431,8.603,22.216,10.638C488.791,198.803,491.555,199.523,493.623,200.241
		z"/>
</g>
</svg>